Coordinates
version=1
nRows=14
nColumns=40
inDegrees=yes

Units are S.I. units (second, meters, Newtons, ...)
Angles are in degrees.

endheader
time	pelvis_tilt	pelvis_list	pelvis_rotation	pelvis_tx	pelvis_ty	pelvis_tz	hip_flexion_r	hip_adduction_r	hip_rotation_r	knee_angle_r	knee_angle_r_beta	ankle_angle_r	subtalar_angle_r	mtp_angle_r	hip_flexion_l	hip_adduction_l	hip_rotation_l	knee_angle_l	knee_angle_l_beta	ankle_angle_l	subtalar_angle_l	mtp_angle_l	lumbar_extension	lumbar_bending	lumbar_rotation	arm_flex_r	arm_add_r	arm_rot_r	elbow_flex_r	pro_sup_r	wrist_flex_r	wrist_dev_r	arm_flex_l	arm_add_l	arm_rot_l	elbow_flex_l	pro_sup_l	wrist_flex_l	wrist_dev_l
     17.64328571	     -4.45922941	     -5.97249948	      5.97722980	      1.07122746	      0.92199855	      0.46538027	      2.07634759	      3.73171680	    -15.87047044	     11.35443169	     11.35443169	     15.63409279	      2.53466774	     -5.10735833	     30.33583702	     -8.14066517	      0.64612037	     23.51284068	     23.51284068	      5.88947842	    -10.12155601	      6.18570639	     -9.49797741	      4.05065380	      3.55011428	     34.01295714	    -14.57921673	      2.80490317	     93.24831952	     44.15952050	      0.00000000	      0.00000000	      2.35217166	     -9.97700177	    -15.80508507	     28.17655313	     46.97939072	      0.00000000	      0.00000000
     17.65657143	     -4.35309694	     -5.99661630	      5.83398112	      1.07287530	      0.92126357	      0.46334687	      1.55095677	      3.69835060	    -15.31553549	     11.56336534	     11.56336534	     16.51383806	      2.12186655	     -3.45090791	     29.46423785	     -8.17572638	      0.40741280	     23.44092574	     23.44092574	      4.51906739	    -10.40008314	      3.14814978	     -9.34675359	      3.96791443	      3.03096187	     33.97053022	    -13.85448829	      4.00523344	     92.50899763	     44.21280785	      0.00000000	      0.00000000	      1.67199442	    -10.09757097	    -16.69237484	     28.46624577	     47.06811168	      0.00000000	      0.00000000
     17.66985714	     -4.28653389	     -5.90173096	      5.74473881	      1.07436716	      0.92070672	      0.46096981	      1.11753814	      3.44288041	    -15.15107863	     11.83173708	     11.83173708	     16.84020060	      2.04818628	     -3.51227581	     28.86920615	     -7.99990886	      0.36725070	     23.75213071	     23.75213071	      4.47449740	    -10.52429027	      3.06132764	     -9.18567765	      3.74850296	      3.06616579	     33.20863175	    -13.59477829	      4.22766526	     92.35017114	     44.21204516	      0.00000000	      0.00000000	      1.55603782	    -10.20619202	    -16.75801901	     28.41977418	     47.07404278	      0.00000000	      0.00000000
     17.68314286	     -4.24543358	     -5.67205631	      5.69366368	      1.07559060	      0.92035463	      0.45826395	      0.94403712	      2.96191798	    -14.87652270	     12.54607675	     12.54607675	     17.24030962	      1.65694168	     -3.38382021	     28.32795097	     -7.62951255	      0.36696506	     23.98639968	     23.98639968	      4.45364190	    -10.73136159	      2.78339655	     -9.06570321	      3.41818739	      3.01883116	     32.40311170	    -13.39474704	      4.54060676	     92.04078368	     44.22008781	      0.00000000	      0.00000000	      1.52520383	    -10.33638437	    -16.88587014	     28.34845308	     47.08679105	      0.00000000	      0.00000000
     17.69642857	     -4.08836031	     -5.56959152	      5.75658548	      1.07684455	      0.92037714	      0.45533822	      0.52589586	      2.65506596	    -14.81015962	     12.98182707	     12.98182707	     17.40631455	      1.40761310	     -3.35937692	     27.84248838	     -7.35675402	      0.47389363	     24.38593160	     24.38593160	      4.71219842	    -10.91506801	      2.56235136	     -9.04950647	      3.24056141	      2.86594428	     31.39375347	    -13.24099487	      4.79067734	     91.72846759	     44.22099260	      0.00000000	      0.00000000	      1.52850036	    -10.39561067	    -16.91872468	     28.32155877	     47.09027577	      0.00000000	      0.00000000
     17.70971429	     -4.10839784	     -5.30823501	      5.74272389	      1.07764447	      0.92036330	      0.45217445	      0.83365521	      2.00825200	    -14.46028013	     14.43646434	     14.43646434	     17.83626049	      0.59259032	     -2.98227058	     27.51790175	     -6.85711095	      0.65679228	     24.67117530	     24.67117530	      4.83935578	    -11.42719588	      2.25681293	     -8.91168333	      2.90546673	      2.83202813	     30.45173451	    -13.32661314	      5.24392021	     90.91652207	     44.24574471	      0.00000000	      0.00000000	      1.73935099	    -10.48036972	    -17.03470611	     28.18850499	     47.10158165	      0.00000000	      0.00000000
     17.72300000	     -3.96062610	     -5.13149765	      5.79580385	      1.07846066	      0.92082105	      0.44881377	      0.87081627	      1.46538737	    -14.32865240	     15.68526806	     15.68526806	     18.00209962	      0.07532056	     -2.79722769	     27.09049576	     -6.45973771	      0.75316695	     25.02234076	     25.02234076	      5.16285495	    -11.83490869	      2.07253646	     -8.94981765	      2.70570246	      2.72443388	     29.36638499	    -13.41151981	      5.60950422	     90.12134821	     44.26770866	      0.00000000	      0.00000000	      1.99450515	    -10.52821942	    -17.08954057	     28.13481075	     47.10646544	      0.00000000	      0.00000000
     17.73628571	     -3.66049444	     -5.15435560	      5.92849799	      1.07937916	      0.92177023	      0.44528246	      0.59288718	      1.18081700	    -14.35944500	     16.57679014	     16.57679014	     17.79260576	     -0.19473952	     -2.80636517	     26.52028989	     -6.26143004	      0.97172642	     25.33377285	     25.33377285	      5.65140672	    -12.01611341	      1.87338624	     -9.17260836	      2.77947021	      2.45159998	     28.07880075	    -13.37011619	      5.86943102	     89.58344874	     44.27406947	      0.00000000	      0.00000000	      2.13270763	    -10.51590148	    -17.08895075	     28.15986618	     47.10675253	      0.00000000	      0.00000000
     17.74957143	     -3.72599465	     -4.90148224	      5.84027419	      1.07968203	      0.92210093	      0.44169567	      1.55425578	      0.30291538	    -14.09803652	     19.09457538	     19.09457538	     17.88530703	     -1.01774401	     -3.16884343	     26.28731631	     -5.75278237	      1.04773637	     25.61741810	     25.61741810	      6.06255825	    -12.56094613	      2.03438465	     -8.98656695	      2.51704311	      2.66749575	     26.92733685	    -13.78434477	      6.28885748	     87.89966456	     44.32687947	      0.00000000	      0.00000000	      2.64373455	    -10.50844798	    -17.05018438	     28.15799100	     47.09744337	      0.00000000	      0.00000000
     17.76285714	     -3.57598882	     -4.81571628	      5.77978237	      1.08013020	      0.92292020	      0.43810989	      2.15759022	     -0.33840977	    -13.94408049	     21.30441296	     21.30441296	     17.59359859	     -1.62796698	     -3.67812637	     25.79996709	     -5.47770233	      1.03959545	     25.83513442	     25.83513442	      6.57206895	    -12.79468751	      2.11292024	     -9.05830332	      2.48367588	      2.71543157	     25.69397589	    -14.01678489	      6.63275613	     86.44286492	     44.36958662	      0.00000000	      0.00000000	      3.02721903	    -10.46684810	    -16.98541286	     28.24438221	     47.08458516	      0.00000000	      0.00000000
     17.77614286	     -3.39305749	     -4.74216110	      5.65320667	      1.08051204	      0.92378214	      0.43459372	      2.93132481	     -1.01621334	    -13.71767010	     23.85803102	     23.85803102	     17.13093076	     -2.30866285	     -4.38845652	     25.25199593	     -5.26339758	      0.91014806	     26.03273056	     26.03273056	      7.08148927	    -12.92925952	      2.12541299	     -9.18438134	      2.46763545	      2.82800830	     24.39401050	    -14.25164433	      6.94345896	     84.89723626	     44.41243770	      0.00000000	      0.00000000	      3.45494593	    -10.42376410	    -16.90739924	     28.44555020	     47.07256903	      0.00000000	      0.00000000
     17.78942857	     -3.29838929	     -4.70831707	      5.46229637	      1.08071625	      0.92449888	      0.43117158	      4.03686851	     -1.70402300	    -13.40191712	     26.77649806	     26.77649806	     16.42919166	     -3.12281868	     -5.34734428	     24.75472042	     -5.10853965	      0.71386044	     26.14949502	     26.14949502	      7.60015922	    -12.97786728	      2.14029762	     -9.18909438	      2.53134592	      2.98624615	     23.07962051	    -14.50253568	      7.23807788	     83.00675725	     44.46690423	      0.00000000	      0.00000000	      3.86087747	    -10.36555596	    -16.79173501	     28.69844228	     47.05396175	      0.00000000	      0.00000000
     17.80271429	     -3.18761467	     -4.68710664	      5.22693192	      1.08085774	      0.92513568	      0.42800076	      5.31580397	     -2.37354524	    -12.98438275	     29.97181456	     29.97181456	     15.48825482	     -4.08611184	     -6.45113934	     24.22005607	     -5.01273013	      0.44533384	     26.24730966	     26.24730966	      8.13761768	    -12.91129943	      2.09814694	     -9.19614888	      2.53293500	      3.14358796	     21.81390636	    -14.68132294	      7.52480616	     80.88782838	     44.52881973	      0.00000000	      0.00000000	      4.26995722	    -10.32091341	    -16.64187944	     29.01187725	     47.03038273	      0.00000000	      0.00000000
     17.81600000	     -3.12802898	     -4.82765272	      4.95210218	      1.08080894	      0.92566824	      0.42514661	      6.71176358	     -2.73438711	    -12.28011473	     33.01024362	     33.01024362	     13.33552294	     -6.12824517	     -9.80799887	     23.83697302	     -5.14381109	      0.09112836	     26.47905783	     26.47905783	      8.84745868	    -12.58004149	      2.35477399	     -9.03798868	      2.70784172	      2.79665358	     21.55333712	    -14.11453794	      7.99778515	     75.63487879	     44.71211506	      0.00000000	      0.00000000	      4.23925363	    -10.48973010	    -15.89594161	     29.54084283	     46.89080860	      0.00000000	      0.00000000
